<?xml version="1.0" encoding="UTF-8"?>
<!DOCTYPE svg PUBLIC "-//W3C//DTD SVG 1.1//EN" "http://www.w3.org/Graphics/SVG/1.1/DTD/svg11.dtd">
<svg xmlns="http://www.w3.org/2000/svg" version="1.1" width="5062px" height="5062px" style="shape-rendering:geometricPrecision; text-rendering:geometricPrecision; image-rendering:optimizeQuality; fill-rule:evenodd; clip-rule:evenodd" xmlns:xlink="http://www.w3.org/1999/xlink">
<g><path style="opacity:0.992" fill="#fefefe" d="M 1401.5,1746.5 C 1395.93,1747.82 1390.76,1746.82 1386,1743.5C 1381.94,1728.31 1377.27,1713.31 1372,1698.5C 1360.64,1687.12 1352.3,1673.79 1347,1658.5C 1342.65,1654.64 1338.15,1650.98 1333.5,1647.5C 1332.96,1645.46 1332.29,1643.46 1331.5,1641.5C 1320.27,1635.88 1308.6,1631.38 1296.5,1628C 1283.5,1627.33 1270.5,1627.33 1257.5,1628C 1246.77,1636.96 1240.94,1648.46 1240,1662.5C 1239.15,1671.99 1238.31,1681.32 1237.5,1690.5C 1235.31,1687.58 1234.31,1684.25 1234.5,1680.5C 1199.16,1676.01 1182.82,1691.51 1185.5,1727C 1184.89,1745.96 1188.39,1764.12 1196,1781.5C 1216.6,1815.76 1237.6,1849.76 1259,1883.5C 1272.23,1910.34 1277.23,1938.67 1274,1968.5C 1273.24,2016.97 1262.08,2062.81 1240.5,2106C 1339.83,2105.4 1439.16,2105.4 1538.5,2106C 1565.91,2102.13 1588.07,2110.96 1605,2132.5C 1613.98,2145.78 1618.31,2160.44 1618,2176.5C 1619.6,2212.8 1615.6,2248.47 1606,2283.5C 1588.88,2335.28 1556.05,2373.45 1507.5,2398C 1444.42,2431 1379.42,2435.34 1312.5,2411C 1268.52,2390.93 1232.69,2361.1 1205,2321.5C 1192.86,2308.7 1179.7,2297.2 1165.5,2287C 1153.94,2281.22 1141.94,2276.55 1129.5,2273C 1108.02,2268.72 1086.36,2266.72 1064.5,2267C 1055.4,2269.96 1046.07,2271.63 1036.5,2272C 943.892,2303.7 870.058,2359.86 815,2440.5C 789.034,2483.39 772.368,2529.72 765,2579.5C 761.975,2631.3 768.141,2681.96 783.5,2731.5C 783.489,2733.85 782.656,2735.85 781,2737.5C 770.357,2726.22 761.69,2713.56 755,2699.5C 740.782,2672.17 728.116,2644.17 717,2615.5C 713.726,2606.4 711.392,2597.07 710,2587.5C 703.823,2535.24 708.156,2483.91 723,2433.5C 730.217,2413.18 738.217,2393.18 747,2373.5C 761.179,2341.81 775.345,2310.15 789.5,2278.5C 790.167,2278.5 790.5,2278.17 790.5,2277.5C 804.41,2256.69 818.576,2236.02 833,2215.5C 840.843,2201.82 848.177,2187.82 855,2173.5C 856.591,2161.03 858.925,2148.69 862,2136.5C 864.297,2110.38 855.464,2088.88 835.5,2072C 819.539,2058.68 801.539,2049.02 781.5,2043C 769.5,2042.33 757.5,2042.33 745.5,2043C 737.585,2044.39 729.919,2046.56 722.5,2049.5C 732.118,2045 741.452,2039.84 750.5,2034C 775.678,2024.96 801.345,2017.62 827.5,2012C 848.951,2010.06 870.451,2009.23 892,2009.5C 928.165,2010.3 964.332,2010.47 1000.5,2010C 1029.49,2005.56 1057.16,1996.89 1083.5,1984C 1134.7,1949.07 1150.87,1901.91 1132,1842.5C 1123.24,1817.23 1115.91,1791.56 1110,1765.5C 1103.43,1727.14 1109.76,1691.14 1129,1657.5C 1141.64,1638.53 1157.81,1623.36 1177.5,1612C 1189.47,1605.18 1201.8,1599.18 1214.5,1594C 1200.53,1580.02 1184.86,1568.36 1167.5,1559C 1154.4,1558.53 1142.4,1562.03 1131.5,1569.5C 1109.85,1560.52 1101.01,1544.52 1105,1521.5C 1109.38,1513.12 1115.21,1505.96 1122.5,1500C 1134.98,1496.66 1145.81,1499.49 1155,1508.5C 1158.26,1515.95 1160.93,1523.62 1163,1531.5C 1187.48,1549.3 1211.98,1567.13 1236.5,1585C 1245.74,1587.43 1255.08,1588.26 1264.5,1587.5C 1256.07,1551.46 1246.24,1515.8 1235,1480.5C 1228.09,1470.26 1220.43,1460.59 1212,1451.5C 1206.05,1441.14 1206.05,1430.81 1212,1420.5C 1231.82,1397.01 1253.65,1395.17 1277.5,1415C 1278.23,1416.4 1278.73,1417.9 1279,1419.5C 1280.65,1433.15 1280.81,1446.82 1279.5,1460.5C 1273.69,1462.1 1268.03,1464.1 1262.5,1466.5C 1260.97,1470.51 1259.97,1474.67 1259.5,1479C 1263.77,1513.57 1268.61,1548.07 1274,1582.5C 1275.05,1584.11 1276.55,1584.77 1278.5,1584.5C 1278.19,1569.47 1278.69,1554.47 1280,1539.5C 1286.05,1508.73 1290.22,1477.73 1292.5,1446.5C 1291.52,1445.02 1290.35,1443.69 1289,1442.5C 1286.01,1424.66 1293.18,1412.83 1310.5,1407C 1327.4,1405.08 1340.9,1410.91 1351,1424.5C 1355.62,1441.66 1351.12,1456.16 1337.5,1468C 1329.97,1471.9 1321.97,1473.4 1313.5,1472.5C 1311.42,1488.04 1308.26,1503.38 1304,1518.5C 1299.66,1532.18 1295.33,1545.85 1291,1559.5C 1290.26,1567.87 1290.59,1576.21 1292,1584.5C 1295.43,1585.31 1298.43,1584.31 1301,1581.5C 1317.5,1555.82 1334.5,1530.49 1352,1505.5C 1354.94,1499.95 1357.61,1494.29 1360,1488.5C 1360.24,1476.1 1361.24,1463.77 1363,1451.5C 1365.03,1446.39 1368.86,1443.55 1374.5,1443C 1390.3,1442.76 1403.13,1448.92 1413,1461.5C 1419.17,1479.3 1415.01,1494.14 1400.5,1506C 1390.1,1508.09 1379.94,1507.25 1370,1503.5C 1353.94,1529.9 1335.94,1554.9 1316,1578.5C 1314.09,1581.21 1313.26,1584.21 1313.5,1587.5C 1387.79,1607.31 1419.29,1655.31 1408,1731.5C 1405.82,1736.52 1403.65,1741.52 1401.5,1746.5 Z"/></g>
<g><path style="opacity:0.954" fill="#fefffe" d="M 1172.5,1446.5 C 1184.62,1445.9 1195.45,1449.23 1205,1456.5C 1206.93,1473.51 1208.93,1490.51 1211,1507.5C 1226.79,1529.41 1240.79,1552.41 1253,1576.5C 1253.5,1579.48 1253.66,1582.48 1253.5,1585.5C 1250.73,1585.78 1248.23,1585.11 1246,1583.5C 1231.91,1559.64 1216.57,1536.64 1200,1514.5C 1198.29,1512.09 1197.46,1509.42 1197.5,1506.5C 1191.11,1507.9 1187.44,1511.9 1186.5,1518.5C 1180.36,1519.96 1174.69,1518.79 1169.5,1515C 1160.78,1507.36 1153.61,1498.52 1148,1488.5C 1144.63,1467.56 1152.79,1453.56 1172.5,1446.5 Z"/></g>
<g><path style="opacity:0.982" fill="#fefefe" d="M 4338.5,1567.5 C 4336.19,1567.01 4333.86,1566.67 4331.5,1566.5C 4331.5,1567.83 4331.5,1569.17 4331.5,1570.5C 4291.66,1570.83 4252,1570.5 4212.5,1569.5C 4212.4,1561.46 4212.9,1553.46 4214,1545.5C 4215.68,1540.82 4218.51,1536.99 4222.5,1534C 4252.96,1512.3 4284.29,1510.96 4316.5,1530C 4326.53,1540.89 4333.86,1553.39 4338.5,1567.5 Z"/></g>
<g><path style="opacity:0.994" fill="#5f43b2" d="M 4338.5,1567.5 C 4349.94,1570.55 4360.94,1574.72 4371.5,1580C 4379.2,1586.78 4382.37,1595.28 4381,1605.5C 4376.45,1624.95 4367.45,1641.95 4354,1656.5C 4353.62,1658.57 4354.45,1660.07 4356.5,1661C 4367.8,1662.26 4379.13,1662.76 4390.5,1662.5C 4390.55,1667.98 4389.22,1672.98 4386.5,1677.5C 4319.5,1676.47 4252.5,1675.31 4185.5,1674C 4184.83,1673.33 4184.17,1672.67 4183.5,1672C 4174.87,1670.8 4166.21,1670.3 4157.5,1670.5C 4153.85,1666.4 4153.52,1661.9 4156.5,1657C 4166.39,1654.69 4176.39,1653.02 4186.5,1652C 4181.38,1641.59 4175.88,1631.43 4170,1621.5C 4162.44,1604.64 4164.94,1589.47 4177.5,1576C 4179.6,1574.23 4181.93,1572.9 4184.5,1572C 4193.74,1570.18 4203.08,1569.34 4212.5,1569.5C 4252,1570.5 4291.66,1570.83 4331.5,1570.5C 4331.5,1569.17 4331.5,1567.83 4331.5,1566.5C 4333.86,1566.67 4336.19,1567.01 4338.5,1567.5 Z"/></g>
<g><path style="opacity:0.99" fill="#5f43b2" d="M 1401.5,1746.5 C 1412.05,1750.7 1421.21,1757.03 1429,1765.5C 1434.4,1773.23 1439.4,1781.23 1444,1789.5C 1447.74,1798.71 1451.07,1808.04 1454,1817.5C 1454.79,1823.02 1454.13,1828.35 1452,1833.5C 1430.14,1809.97 1404.64,1791.47 1375.5,1778C 1327.42,1775.04 1287.25,1755.87 1255,1720.5C 1248.14,1711.13 1242.31,1701.13 1237.5,1690.5C 1238.31,1681.32 1239.15,1671.99 1240,1662.5C 1240.94,1648.46 1246.77,1636.96 1257.5,1628C 1270.5,1627.33 1283.5,1627.33 1296.5,1628C 1308.6,1631.38 1320.27,1635.88 1331.5,1641.5C 1332.29,1643.46 1332.96,1645.46 1333.5,1647.5C 1338.15,1650.98 1342.65,1654.64 1347,1658.5C 1352.3,1673.79 1360.64,1687.12 1372,1698.5C 1377.27,1713.31 1381.94,1728.31 1386,1743.5C 1390.76,1746.82 1395.93,1747.82 1401.5,1746.5 Z"/></g>
<g><path style="opacity:0.99" fill="#fefefe" d="M 4157.5,1670.5 C 4166.21,1670.3 4174.87,1670.8 4183.5,1672C 4184.17,1672.67 4184.83,1673.33 4185.5,1674C 4252.5,1675.31 4319.5,1676.47 4386.5,1677.5C 4384.62,1687.09 4383.29,1696.76 4382.5,1706.5C 4393.5,1706.5 4404.5,1706.5 4415.5,1706.5C 4415.57,1692.18 4421.91,1681.68 4434.5,1675C 4442.38,1672.97 4449.71,1674.31 4456.5,1679C 4482.4,1700.27 4483.06,1722.27 4458.5,1745C 4451.5,1748.26 4444.17,1749.26 4436.5,1748C 4427.45,1742.81 4418.11,1738.14 4408.5,1734C 4399.19,1733 4389.86,1732.5 4380.5,1732.5C 4380.5,1756.5 4380.5,1780.5 4380.5,1804.5C 4390.94,1805.04 4400.94,1803.21 4410.5,1799C 4416.26,1790.82 4422.26,1782.82 4428.5,1775C 4436.38,1772.14 4444.38,1771.81 4452.5,1774C 4459.81,1779.58 4466.64,1785.75 4473,1792.5C 4480.81,1814.71 4474.31,1831.21 4453.5,1842C 4445.12,1844.26 4437.12,1843.26 4429.5,1839C 4422.53,1833.03 4415.86,1826.7 4409.5,1820C 4399.18,1818.94 4388.85,1818.1 4378.5,1817.5C 4378.5,1842.5 4378.5,1867.5 4378.5,1892.5C 4389.31,1892.65 4399.98,1891.48 4410.5,1889C 4419.73,1863.14 4436.4,1856.81 4460.5,1870C 4478.99,1887.39 4480.33,1906.06 4464.5,1926C 4451.63,1931.63 4438.3,1932.96 4424.5,1930C 4414.72,1923.94 4410.05,1915.1 4410.5,1903.5C 4399.83,1903.5 4389.17,1903.5 4378.5,1903.5C 4378.5,1921.5 4378.5,1939.5 4378.5,1957.5C 4304.78,1957.04 4231.11,1958.04 4157.5,1960.5C 4157.5,1942.83 4157.5,1925.17 4157.5,1907.5C 4148.48,1907.17 4139.48,1907.5 4130.5,1908.5C 4126.26,1916.47 4120.93,1923.64 4114.5,1930C 4091.83,1937.08 4075.67,1929.91 4066,1908.5C 4061.04,1887.69 4067.87,1872.19 4086.5,1862C 4109.62,1856.39 4125.29,1864.73 4133.5,1887C 4141.32,1889.46 4149.32,1890.96 4157.5,1891.5C 4159.14,1867.88 4159.8,1844.21 4159.5,1820.5C 4150.16,1820.33 4140.83,1820.5 4131.5,1821C 4129.67,1822.17 4127.83,1823.33 4126,1824.5C 4123.95,1830.28 4121.11,1835.61 4117.5,1840.5C 4095.6,1846.62 4078.44,1840.29 4066,1821.5C 4060.44,1803.63 4064.61,1788.46 4078.5,1776C 4103.68,1765.89 4121.34,1773.39 4131.5,1798.5C 4139.87,1801.71 4148.54,1803.38 4157.5,1803.5C 4157.5,1780.5 4157.5,1757.5 4157.5,1734.5C 4148.11,1734.15 4138.78,1734.65 4129.5,1736C 4128.5,1736.33 4127.5,1736.67 4126.5,1737C 4123.5,1741.33 4119.83,1745 4115.5,1748C 4093.03,1753.52 4077.2,1745.69 4068,1724.5C 4063.01,1710.89 4065.01,1698.56 4074,1687.5C 4086.5,1671.75 4101,1669.58 4117.5,1681C 4122.33,1684.5 4126.5,1688.67 4130,1693.5C 4130.9,1699.81 4131.4,1706.14 4131.5,1712.5C 4140.17,1712.5 4148.83,1712.5 4157.5,1712.5C 4157.5,1698.5 4157.5,1684.5 4157.5,1670.5 Z"/></g>
<g><path style="opacity:0.996" fill="#6145b2" d="M 4378.5,1957.5 C 4382.46,1957.07 4385.63,1958.4 4388,1961.5C 4388.67,1966.17 4388.67,1970.83 4388,1975.5C 4386.28,1978.72 4383.78,1981.05 4380.5,1982.5C 4306.47,1983.05 4232.47,1982.05 4158.5,1979.5C 4156.08,1978.74 4154.75,1977.08 4154.5,1974.5C 4155.82,1969.89 4156.82,1965.22 4157.5,1960.5C 4231.11,1958.04 4304.78,1957.04 4378.5,1957.5 Z"/></g>
<g><path style="opacity:0.996" fill="#fefefe" d="M 4158.5,1979.5 C 4232.47,1982.05 4306.47,1983.05 4380.5,1982.5C 4379.83,1983.27 4378.99,1983.93 4378,1984.5C 4377.23,1999.88 4377.73,2015.21 4379.5,2030.5C 4390.19,2030.6 4400.86,2030.1 4411.5,2029C 4425.98,2018.46 4440.98,2017.79 4456.5,2027C 4481.67,2042.86 4486.51,2063.7 4471,2089.5C 4461.63,2102.19 4449.13,2110.02 4433.5,2113C 4415.17,2113.5 4396.84,2113.67 4378.5,2113.5C 4379.77,2314.17 4380.94,2514.83 4382,2715.5C 4384.12,2745.89 4389.79,2775.55 4399,2804.5C 4399.83,2809.14 4400.5,2813.81 4401,2818.5C 4410.5,2829.49 4416.83,2842.16 4420,2856.5C 4427.94,2872.65 4433.27,2889.65 4436,2907.5C 4445.33,2928.82 4452.66,2950.82 4458,2973.5C 4461.7,2999.34 4466.36,3025.01 4472,3050.5C 4489.52,3193.27 4461.18,3325.94 4387,3448.5C 4361.17,3485.88 4331.67,3520.38 4298.5,3552C 4237.41,3606.72 4166.41,3642.72 4085.5,3660C 3985.98,3673.36 3893.32,3654.36 3807.5,3603C 3776.1,3583.62 3747.6,3560.45 3722,3533.5C 3708.67,3515.5 3695.33,3497.5 3682,3479.5C 3642.61,3416.97 3624.28,3348.63 3627,3274.5C 3631.33,3230.52 3644.66,3189.52 3667,3151.5C 3683.35,3124.02 3703.18,3099.19 3726.5,3077C 3769.53,3040 3819.53,3019.83 3876.5,3016.5C 3916.45,3017.76 3953.78,3028.26 3988.5,3048C 4029.04,3071.89 4057.21,3106.06 4073,3150.5C 4078.11,3177.38 4078.78,3204.38 4075,3231.5C 4064.42,3261.41 4046.25,3285.57 4020.5,3304C 3991.96,3323.4 3960.46,3332.9 3926,3332.5C 3869.22,3327.12 3827.89,3299.12 3802,3248.5C 3799.98,3243.01 3799.15,3237.35 3799.5,3231.5C 3797.83,3231.5 3796.17,3231.5 3794.5,3231.5C 3797.93,3272.62 3810.1,3310.95 3831,3346.5C 3874.43,3404.33 3931.93,3425.49 4003.5,3410C 4078.42,3390.41 4126.26,3343.24 4147,3268.5C 4151.35,3254.07 4154.69,3239.4 4157,3224.5C 4159.42,3192.53 4161.42,3160.53 4163,3128.5C 4164.09,2790.17 4164.92,2451.83 4165.5,2113.5C 4147.5,2115.34 4129.5,2115.5 4111.5,2114C 4076.71,2106.21 4062.21,2084.71 4068,2049.5C 4073.94,2032.41 4085.77,2021.58 4103.5,2017C 4114.86,2015.51 4125.86,2016.84 4136.5,2021C 4139.17,2023.33 4141.83,2025.67 4144.5,2028C 4150.46,2029.16 4156.46,2030 4162.5,2030.5C 4162.67,2016.16 4162.5,2001.83 4162,1987.5C 4161.87,1984.26 4160.71,1981.6 4158.5,1979.5 Z"/></g>
<g><path style="opacity:1" fill="#5f44b2" d="M 4143.5,2035.5 C 4226.5,2035.46 4309.5,2035.96 4392.5,2037C 4402.58,2040.86 4412.58,2045.03 4422.5,2049.5C 4423.67,2058.48 4423.83,2067.48 4423,2076.5C 4419.53,2084.62 4414.7,2091.78 4408.5,2098C 4405.81,2099.37 4403.15,2100.7 4400.5,2102C 4391.39,2103.93 4382.39,2106.26 4373.5,2109C 4366.19,2109.87 4358.85,2110.54 4351.5,2111C 4289.83,2111.67 4228.17,2111.67 4166.5,2111C 4165.5,2108.67 4163.83,2107 4161.5,2106C 4157.05,2105.87 4152.72,2105.2 4148.5,2104C 4145.87,2101.8 4144.87,2098.97 4145.5,2095.5C 4133.37,2097.55 4125.87,2092.55 4123,2080.5C 4122.33,2070.83 4122.33,2061.17 4123,2051.5C 4126.17,2048.33 4129.33,2045.17 4132.5,2042C 4136.23,2039.81 4139.9,2037.64 4143.5,2035.5 Z"/></g>
<g><path style="opacity:0.999" fill="#5f43b2" d="M 790.5,2277.5 C 789.833,2277.5 789.5,2277.83 789.5,2278.5C 777.816,2290.2 767.816,2303.2 759.5,2317.5C 736.891,2328.61 719.224,2345.11 706.5,2367C 698.833,2370.83 691.167,2374.67 683.5,2378.5C 682.877,2373.84 684.044,2369.51 687,2365.5C 715.132,2327.2 730.299,2284.2 732.5,2236.5C 728.869,2236.16 725.536,2236.99 722.5,2239C 707.621,2247.88 693.287,2257.55 679.5,2268C 659.756,2278.75 638.756,2285.58 616.5,2288.5C 597.134,2287.3 586.968,2276.97 586,2257.5C 585.333,2252.5 585.333,2247.5 586,2242.5C 604.19,2192.32 635.69,2152.82 680.5,2124C 683.112,2118.68 684.445,2113.01 684.5,2107C 683.746,2096.17 683.079,2085.33 682.5,2074.5C 694.232,2063.8 707.565,2055.47 722.5,2049.5C 729.919,2046.56 737.585,2044.39 745.5,2043C 757.5,2042.33 769.5,2042.33 781.5,2043C 801.539,2049.02 819.539,2058.68 835.5,2072C 855.464,2088.88 864.297,2110.38 862,2136.5C 858.925,2148.69 856.591,2161.03 855,2173.5C 848.177,2187.82 840.843,2201.82 833,2215.5C 818.576,2236.02 804.41,2256.69 790.5,2277.5 Z"/></g>
<g><path style="opacity:1" fill="#fbfbfd" d="M 4151.5,2061.5 C 4234.17,2061.33 4316.83,2061.5 4399.5,2062C 4400.57,2063.31 4401.24,2064.81 4401.5,2066.5C 4398.9,2072.24 4397.23,2078.24 4396.5,2084.5C 4341.5,2084.67 4286.5,2084.5 4231.5,2084C 4205.81,2083.89 4180.14,2083.22 4154.5,2082C 4147.81,2075.99 4146.81,2069.15 4151.5,2061.5 Z"/></g>
<g><path style="opacity:0.99" fill="#fefefe" d="M 682.5,2074.5 C 683.079,2085.33 683.746,2096.17 684.5,2107C 684.445,2113.01 683.112,2118.68 680.5,2124C 635.69,2152.82 604.19,2192.32 586,2242.5C 585.333,2247.5 585.333,2252.5 586,2257.5C 586.968,2276.97 597.134,2287.3 616.5,2288.5C 638.756,2285.58 659.756,2278.75 679.5,2268C 693.287,2257.55 707.621,2247.88 722.5,2239C 725.536,2236.99 728.869,2236.16 732.5,2236.5C 730.299,2284.2 715.132,2327.2 687,2365.5C 684.044,2369.51 682.877,2373.84 683.5,2378.5C 691.167,2374.67 698.833,2370.83 706.5,2367C 719.224,2345.11 736.891,2328.61 759.5,2317.5C 757.93,2325.77 755.43,2333.77 752,2341.5C 729.173,2383.16 705.84,2424.49 682,2465.5C 658.732,2496.78 632.565,2525.61 603.5,2552C 557.195,2588.82 510.529,2625.15 463.5,2661C 447.747,2676.4 433.914,2693.24 422,2711.5C 420.667,2710.83 419.667,2709.83 419,2708.5C 417.06,2695.84 417.06,2683.17 419,2670.5C 426.928,2634.46 436.261,2598.79 447,2563.5C 473.167,2494.67 520.667,2447.17 589.5,2421C 533.139,2422.93 488.639,2446.76 456,2492.5C 475.242,2349.04 533.909,2224.71 632,2119.5C 647.831,2103.16 664.665,2088.16 682.5,2074.5 Z"/></g>
<g><path style="opacity:0.996" fill="#fefefe" d="M 2862.5,2194.5 C 2997.02,2193.85 3104.52,2246.85 3185,2353.5C 3267.78,2479.34 3276.11,2610 3210,2745.5C 3144.58,2857.81 3047.08,2922.97 2917.5,2941C 2880.66,2942.73 2843.99,2941.07 2807.5,2936C 2677.22,2904.71 2585.72,2827.55 2533,2704.5C 2506.06,2633.96 2500.06,2561.63 2515,2487.5C 2528.95,2425.59 2556.62,2370.92 2598,2323.5C 2640.07,2274.42 2691.24,2238.26 2751.5,2215C 2787.6,2202.54 2824.6,2195.71 2862.5,2194.5 Z"/></g>
<g><path style="opacity:0.994" fill="#fefffe" d="M 3803.5,2197.5 C 3851.73,2197.05 3897.73,2206.88 3941.5,2227C 4009.11,2266.33 4050.94,2324.49 4067,2401.5C 4069.35,2557.83 4069.68,2714.16 4068,2870.5C 4066.41,2878.96 4063.07,2886.62 4058,2893.5C 4043.4,2910.76 4025.9,2924.26 4005.5,2934C 3958.17,2936 3910.83,2936 3863.5,2934C 3827.72,2923.57 3806.89,2900.07 3801,2863.5C 3798.42,2793.82 3798.09,2724.15 3800,2654.5C 3810.35,2627.13 3822.35,2600.47 3836,2574.5C 3856.17,2539.49 3875.84,2504.16 3895,2468.5C 3906.08,2441.11 3913.58,2412.77 3917.5,2383.5C 3915.08,2336.57 3891.08,2307.07 3845.5,2295C 3797.06,2280.68 3750.72,2285.68 3706.5,2310C 3614.91,2367.38 3563.74,2450.21 3553,2558.5C 3551.33,2662.82 3550.33,2767.15 3550,2871.5C 3544.51,2898.66 3530.01,2919.49 3506.5,2934C 3462.5,2936 3418.5,2936 3374.5,2934C 3356.88,2925.71 3343.04,2913.21 3333,2896.5C 3332.01,2893.58 3331.35,2890.58 3331,2887.5C 3329.12,2706.83 3329.12,2526.17 3331,2345.5C 3331.09,2310.15 3331.76,2274.82 3333,2239.5C 3348.68,2206.67 3374.68,2194 3411,2201.5C 3429.5,2202.21 3448,2203.04 3466.5,2204C 3501.57,2208.6 3526.73,2226.77 3542,2258.5C 3543.57,2290.82 3544.4,2323.15 3544.5,2355.5C 3546.59,2355.68 3548.59,2355.35 3550.5,2354.5C 3554.08,2343.34 3559.25,2333 3566,2323.5C 3608.7,2268.71 3663.2,2230.55 3729.5,2209C 3753.88,2202.4 3778.54,2198.57 3803.5,2197.5 Z"/></g>
<g><path style="opacity:0.996" fill="#fefefe" d="M 2014.5,2198.5 C 2146.51,2184.54 2257.67,2225.54 2348,2321.5C 2395.2,2377.58 2425.53,2441.91 2439,2514.5C 2454.84,2669.81 2400.01,2792.98 2274.5,2884C 2184.37,2939.16 2087.7,2955.49 1984.5,2933C 1884.21,2907.14 1806.38,2850.64 1751,2763.5C 1719.72,2710.67 1701.06,2653.67 1695,2592.5C 1691.32,2470.74 1734.15,2368.91 1823.5,2287C 1878.97,2240.27 1942.63,2210.77 2014.5,2198.5 Z"/></g>
<g><path style="opacity:1" fill="#5f43b2" d="M 2048.5,2362.5 C 2102.61,2360.93 2151.61,2375.76 2195.5,2407C 2261.05,2465.31 2282.22,2537.15 2259,2622.5C 2234.81,2703.69 2180.98,2751.19 2097.5,2765C 2025.79,2773.44 1965.63,2751.27 1917,2698.5C 1866.32,2633.12 1855.32,2561.45 1884,2483.5C 1916.91,2413.43 1971.75,2373.09 2048.5,2362.5 Z"/></g>
<g><path style="opacity:1" fill="#5f43b2" d="M 2848.5,2363.5 C 2956.18,2356.56 3030.68,2402.56 3072,2501.5C 3091.8,2585.07 3071.63,2657.24 3011.5,2718C 2979.47,2742.67 2943.47,2758.67 2903.5,2766C 2818.91,2770.29 2753.07,2737.45 2706,2667.5C 2686.85,2635.03 2677.68,2599.87 2678.5,2562C 2678.85,2500.65 2702.18,2449.98 2748.5,2410C 2777.66,2385.59 2810.99,2370.09 2848.5,2363.5 Z"/></g>
<g><path style="opacity:0.985" fill="#fefefe" d="M 657.5,2511.5 C 660.602,2511.15 663.435,2511.82 666,2513.5C 666.667,2517.17 666.667,2520.83 666,2524.5C 659.044,2547.66 652.71,2570.99 647,2594.5C 642.432,2632.41 638.766,2670.41 636,2708.5C 631.518,2733.62 622.518,2756.95 609,2778.5C 601.58,2785.92 594.913,2793.92 589,2802.5C 558.727,2830.1 529.061,2858.44 500,2887.5C 476.232,2916.35 457.566,2948.35 444,2983.5C 443.001,2993.16 442.167,3002.82 441.5,3012.5C 438.833,3012.5 436.167,3012.5 433.5,3012.5C 418.02,2948.37 412.187,2883.37 416,2817.5C 418.859,2788.06 425.193,2759.4 435,2731.5C 450.096,2699.73 470.596,2671.9 496.5,2648C 526.951,2622.28 557.951,2597.28 589.5,2573C 610.47,2552.86 632.47,2534.02 655.5,2516.5C 656.95,2515.15 657.617,2513.48 657.5,2511.5 Z"/></g>
<g><path style="opacity:0.992" fill="#fefffe" d="M 1041.5,2521.5 C 1230.83,2521.33 1420.17,2521.5 1609.5,2522C 1611.59,2522.79 1613.42,2523.96 1615,2525.5C 1616.96,2729.5 1616.96,2933.5 1615,3137.5C 1611.77,3219.09 1593.44,3297.09 1560,3371.5C 1526.09,3437.08 1477.93,3489.58 1415.5,3529C 1399.98,3537.43 1383.98,3544.76 1367.5,3551C 1363.2,3552.54 1358.86,3552.7 1354.5,3551.5C 1357.42,3541.66 1361.92,3532.66 1368,3524.5C 1443.41,3448.62 1479.08,3356.95 1475,3249.5C 1469.35,3187.89 1446.02,3134.23 1405,3088.5C 1397,3080.5 1389,3072.5 1381,3064.5C 1378.57,3061.07 1376.57,3057.4 1375,3053.5C 1373.1,3041.41 1372.26,3029.25 1372.5,3017C 1373.6,2990.5 1373.6,2964 1372.5,2937.5C 1305.93,2976.41 1234.26,3000.25 1157.5,3009C 1084.56,3014.56 1014.22,3003.56 946.5,2976C 922.321,2963.74 897.988,2951.74 873.5,2940C 836.012,2915.31 801.178,2887.14 769,2855.5C 730.884,2810.61 704.884,2759.27 691,2701.5C 688.233,2665.52 687.9,2629.52 690,2593.5C 692.486,2585.36 694.653,2585.53 696.5,2594C 727.107,2710.55 792.774,2801.88 893.5,2868C 997.022,2933.11 1107.69,2948.44 1225.5,2914C 1285.78,2897.61 1339.45,2869.27 1386.5,2829C 1422.83,2797.69 1453.66,2761.86 1479,2721.5C 1491.84,2697.32 1504,2672.82 1515.5,2648C 1489.75,2668.58 1462.41,2687.24 1433.5,2704C 1398.87,2722.81 1362.54,2737.48 1324.5,2748C 1285.83,2751.33 1247.17,2751.33 1208.5,2748C 1121.22,2731.38 1062.06,2681.54 1031,2598.5C 1029.5,2583.53 1029.17,2568.53 1030,2553.5C 1033.34,2542.63 1037.18,2531.96 1041.5,2521.5 Z"/></g>
<g><path style="opacity:1" fill="#6044b2" d="M 546.5,2652.5 C 582.679,2651.84 600.179,2669.51 599,2705.5C 596.177,2749.67 575.344,2782.17 536.5,2803C 526.167,2803.67 515.833,2803.67 505.5,2803C 495.15,2796.99 485.65,2789.82 477,2781.5C 475.667,2778.83 474.333,2776.17 473,2773.5C 471.02,2756.17 471.02,2738.84 473,2721.5C 476.165,2715.17 479.831,2709.17 484,2703.5C 493.833,2692.33 503.667,2681.17 513.5,2670C 523.706,2662.57 534.706,2656.73 546.5,2652.5 Z"/></g>
<g><path style="opacity:1" fill="#fefdfe" d="M 538.5,2688.5 C 549.875,2688.13 559.708,2691.8 568,2699.5C 572.849,2725.62 565.349,2747.45 545.5,2765C 511.894,2780.06 496.394,2769.23 499,2732.5C 506.436,2712.58 519.603,2697.92 538.5,2688.5 Z"/></g>
<g><path style="opacity:0.986" fill="#fefefe" d="M 641.5,2726.5 C 645.875,2726.35 649.708,2727.68 653,2730.5C 660.929,2745.21 665.929,2760.88 668,2777.5C 686.742,2830.23 719.575,2871.73 766.5,2902C 791.833,2916 817.167,2930 842.5,2944C 862.463,2952.32 882.796,2959.65 903.5,2966C 927.303,2981.13 945.47,3001.3 958,3026.5C 967.222,3055.73 963.222,3083.06 946,3108.5C 933.044,3123.73 916.544,3132.23 896.5,3134C 878.857,3136.38 861.19,3136.72 843.5,3135C 802.89,3118.44 769.39,3092.61 743,3057.5C 695.068,2993.95 663.068,2922.95 647,2844.5C 642.009,2805.35 640.176,2766.01 641.5,2726.5 Z"/></g>
<g><path style="opacity:0.987" fill="#fefefe" d="M 603.5,2798.5 C 608.383,2798.22 610.883,2800.55 611,2805.5C 612.718,2829.14 616.385,2852.48 622,2875.5C 636.022,2913.23 651.022,2950.57 667,2987.5C 677.186,3015.64 680.519,3044.64 677,3074.5C 676.179,3086.23 674.845,3097.89 673,3109.5C 660.091,3149.8 648.424,3190.47 638,3231.5C 627.889,3289.63 632.223,3346.63 651,3402.5C 655.068,3414.87 659.235,3427.2 663.5,3439.5C 660.761,3440.77 658.094,3440.6 655.5,3439C 566.571,3344.57 502.404,3235.07 463,3110.5C 459.784,3092.54 456.784,3074.54 454,3056.5C 451.347,3029.39 454.681,3003.05 464,2977.5C 487.915,2922.15 523.081,2875.32 569.5,2837C 582.552,2825.46 593.885,2812.63 603.5,2798.5 Z"/></g>
<g><path style="opacity:1" fill="#5f43b2" d="M 560.5,2897.5 C 566.654,2897.22 572.654,2898.05 578.5,2900C 609.23,2927.78 630.73,2961.61 643,3001.5C 643.667,3023.83 643.667,3046.17 643,3068.5C 639.288,3103.78 621.788,3129.61 590.5,3146C 566.296,3151.95 544.962,3146.62 526.5,3130C 494.516,3099.51 481.682,3062.35 488,3018.5C 492.671,2983.16 507.005,2952.5 531,2926.5C 540.728,2916.6 550.562,2906.94 560.5,2897.5 Z"/></g>
<g><path style="opacity:1" fill="#5f43b2" d="M 757.5,2987.5 C 757.5,2977.17 757.5,2966.83 757.5,2956.5C 761.042,2956.81 764.375,2956.48 767.5,2955.5C 785.008,2955.62 802.508,2955.29 820,2954.5C 859.446,2955.21 889.446,2972.21 910,3005.5C 923.831,3040.37 913.665,3065.2 879.5,3080C 875.5,3080.67 871.5,3080.67 867.5,3080C 871.378,3074.45 876.211,3069.95 882,3066.5C 884.363,3051.58 885.03,3036.58 884,3021.5C 881.178,3014.52 877.845,3007.86 874,3001.5C 871.181,2997.51 867.347,2995.84 862.5,2996.5C 862.436,3010.13 857.769,3021.96 848.5,3032C 836.549,3034.13 824.716,3036.63 813,3039.5C 812.339,3044.56 812.672,3049.56 814,3054.5C 815.795,3057.43 817.295,3060.43 818.5,3063.5C 818.658,3065.32 817.991,3066.65 816.5,3067.5C 811.438,3065.26 806.772,3062.43 802.5,3059C 790.667,3045.83 778.833,3032.67 767,3019.5C 760.282,3009.85 757.115,2999.18 757.5,2987.5 Z"/></g>
<g><path style="opacity:1" fill="#fefdfe" d="M 557.5,2957.5 C 567.673,2956.61 576.507,2959.61 584,2966.5C 605.14,2992.2 611.474,3021.2 603,3053.5C 589.315,3074.73 570.815,3080.23 547.5,3070C 529.286,3050.66 522.453,3027.82 527,3001.5C 534.957,2985.24 545.124,2970.57 557.5,2957.5 Z"/></g>
<g><path style="opacity:1" fill="#a595d3" d="M 767.5,2955.5 C 764.375,2956.48 761.042,2956.81 757.5,2956.5C 757.5,2966.83 757.5,2977.17 757.5,2987.5C 756.506,2977.01 756.172,2966.35 756.5,2955.5C 760.167,2955.5 763.833,2955.5 767.5,2955.5 Z"/></g>
<g><path style="opacity:0.991" fill="#fefffe" d="M 1836.5,2993.5 C 1899.17,2989.78 1959.83,2998.95 2018.5,3021C 2079.84,3050.96 2110.5,3100.29 2110.5,3169C 2110.9,3193.31 2107.73,3217.15 2101,3240.5C 2082.36,3279.15 2057.52,3313.31 2026.5,3343C 1931.85,3421.14 1834.85,3496.14 1735.5,3568C 1822.47,3571.14 1909.47,3572.14 1996.5,3571C 2041.15,3567 2072.31,3544.5 2090,3503.5C 2097.22,3484.62 2102.89,3465.29 2107,3445.5C 2112.36,3443.28 2117.86,3442.61 2123.5,3443.5C 2123.14,3496.52 2121.97,3549.52 2120,3602.5C 2116.96,3645.1 2115.46,3687.77 2115.5,3730.5C 1958.5,3730.5 1801.5,3730.5 1644.5,3730.5C 1644.12,3690.15 1644.62,3649.82 1646,3609.5C 1682.9,3573.27 1720.4,3537.77 1758.5,3503C 1801.91,3459.9 1841.41,3413.74 1877,3364.5C 1922.51,3293.47 1941.17,3215.8 1933,3131.5C 1931.08,3104.55 1926.08,3078.22 1918,3052.5C 1908.05,3031.57 1891.55,3019.4 1868.5,3016C 1820.68,3005.98 1788.84,3023.81 1773,3069.5C 1771.92,3084.26 1772.59,3098.93 1775,3113.5C 1775.8,3116.64 1777.63,3118.8 1780.5,3120C 1789.24,3120.19 1797.9,3121.02 1806.5,3122.5C 1817.03,3147.36 1818.19,3172.7 1810,3198.5C 1802.23,3217.94 1788.73,3231.77 1769.5,3240C 1742.98,3251.89 1715.98,3253.22 1688.5,3244C 1665.03,3231.85 1649.53,3213.02 1642,3187.5C 1628.53,3107.6 1658.36,3050.77 1731.5,3017C 1765.39,3003.61 1800.39,2995.78 1836.5,2993.5 Z"/></g>
<g><path style="opacity:0.991" fill="#fefffe" d="M 2866.5,2993.5 C 2925.81,2992.13 2981.81,3004.96 3034.5,3032C 3073.9,3057.61 3097.07,3093.77 3104,3140.5C 3107.3,3167.98 3106.63,3195.31 3102,3222.5C 3097.87,3238.76 3091.54,3254.09 3083,3268.5C 3066.21,3293.55 3047.38,3317.05 3026.5,3339C 2982.37,3376.8 2937.37,3413.47 2891.5,3449C 2836.83,3489.33 2782.17,3529.67 2727.5,3570C 2749.16,3571.01 2770.82,3571.68 2792.5,3572C 2854.5,3572.67 2916.5,3572.67 2978.5,3572C 3005.49,3570.78 3030.49,3563.11 3053.5,3549C 3068.62,3533.95 3080.12,3516.45 3088,3496.5C 3093.77,3479.41 3098.61,3462.07 3102.5,3444.5C 3107.49,3443.58 3112.49,3443.08 3117.5,3443C 3118.42,3443.37 3119.25,3443.87 3120,3444.5C 3116.09,3535.11 3113.09,3625.78 3111,3716.5C 3110.69,3721.14 3109.86,3725.64 3108.5,3730C 2952.83,3730.67 2797.17,3730.67 2641.5,3730C 2640.05,3706.92 2639.38,3683.75 2639.5,3660.5C 2639.4,3643.47 2639.9,3626.47 2641,3609.5C 2684,3568.5 2727,3527.5 2770,3486.5C 2798.49,3456.68 2825.49,3425.68 2851,3393.5C 2915.94,3309.08 2941.28,3213.75 2927,3107.5C 2924.02,3083.9 2917.02,3061.56 2906,3040.5C 2899.76,3033.59 2892.93,3027.43 2885.5,3022C 2859.22,3012.54 2832.89,3012.21 2806.5,3021C 2780.41,3035.49 2767.07,3057.82 2766.5,3088C 2767,3098.81 2769,3109.31 2772.5,3119.5C 2782.37,3120.12 2792.21,3121.12 2802,3122.5C 2804.42,3126.42 2806.09,3130.76 2807,3135.5C 2812.26,3158.12 2811.26,3180.45 2804,3202.5C 2785.17,3235.57 2756.5,3251.24 2718,3249.5C 2681.11,3249.59 2655.78,3232.59 2642,3198.5C 2633.44,3177.89 2631.1,3156.56 2635,3134.5C 2641.4,3087.48 2664.9,3051.98 2705.5,3028C 2742.46,3008.68 2781.8,2997.68 2823.5,2995C 2838.01,2994.83 2852.34,2994.33 2866.5,2993.5 Z"/></g>
<g><path style="opacity:0.99" fill="#5e42b1" d="M 2291.5,2994.5 C 2294.85,2994.33 2298.18,2994.5 2301.5,2995C 2302.67,2995.42 2303.67,2996.09 2304.5,2997C 2302.57,3011.63 2299.74,3026.13 2296,3040.5C 2295.13,3168.5 2295.46,3296.5 2297,3424.5C 2334.88,3394.28 2373.05,3364.45 2411.5,3335C 2431.56,3318.62 2433.72,3300.12 2418,3279.5C 2411.32,3273.66 2404.82,3267.66 2398.5,3261.5C 2443.83,3260.57 2489.16,3259.91 2534.5,3259.5C 2550.38,3259.92 2566.21,3259.92 2582,3259.5C 2584.14,3260.13 2586.3,3260.63 2588.5,3261C 2562.66,3275.08 2537.66,3290.41 2513.5,3307C 2465.43,3344.03 2417.76,3381.53 2370.5,3419.5C 2385.13,3435.1 2403.13,3441.27 2424.5,3438C 2432.8,3437.2 2440.97,3435.7 2449,3433.5C 2450.4,3433.78 2451.56,3434.45 2452.5,3435.5C 2448.44,3446.55 2448.61,3457.55 2453,3468.5C 2485.18,3537.2 2518.18,3605.53 2552,3673.5C 2569.99,3702.3 2595.49,3720.97 2628.5,3729.5C 2556.17,3730.83 2483.83,3730.83 2411.5,3729.5C 2436.18,3722.49 2445.01,3706.49 2438,3681.5C 2430.25,3659.93 2421.92,3638.6 2413,3617.5C 2387.79,3561.36 2362.29,3505.36 2336.5,3449.5C 2322.91,3458.92 2309.74,3468.92 2297,3479.5C 2295.96,3515.82 2295.46,3552.16 2295.5,3588.5C 2295.38,3618.19 2295.88,3647.86 2297,3677.5C 2299.44,3692.72 2304.44,3707.06 2312,3720.5C 2316.08,3723.79 2320.24,3726.95 2324.5,3730C 2260.87,3732.96 2197.2,3733.29 2133.5,3731C 2131.42,3730.81 2129.42,3730.31 2127.5,3729.5C 2143.28,3725.54 2156.12,3717.2 2166,3704.5C 2168.86,3700.11 2171.19,3695.45 2173,3690.5C 2176.41,3678.04 2178.74,3665.37 2180,3652.5C 2180.33,3632.17 2180.67,3611.83 2181,3591.5C 2181.19,3426.5 2180.52,3261.5 2179,3096.5C 2172.35,3068.85 2156.85,3047.69 2132.5,3033C 2188.78,3033.05 2241.78,3020.22 2291.5,2994.5 Z"/></g>
<g><path style="opacity:0.989" fill="#fefffe" d="M 3564.5,2995.5 C 3567.5,2995.5 3570.5,2995.5 3573.5,2995.5C 3570.13,3054.71 3559.97,3112.71 3543,3169.5C 3530.9,3194 3511.4,3203.16 3484.5,3197C 3391.3,3173.21 3298.3,3148.71 3205.5,3123.5C 3204.67,3127.46 3204.17,3131.46 3204,3135.5C 3203.07,3189.02 3201.57,3242.52 3199.5,3296C 3199.46,3303.9 3200.13,3311.73 3201.5,3319.5C 3264.44,3285.56 3331.44,3273.4 3402.5,3283C 3444.64,3286.16 3483.97,3298.16 3520.5,3319C 3567.27,3349.97 3594.77,3393.47 3603,3449.5C 3615.52,3512.36 3605.19,3571.03 3572,3625.5C 3544.93,3663.55 3509.43,3690.72 3465.5,3707C 3393.12,3732.84 3319.45,3737.5 3244.5,3721C 3216.96,3712.89 3191.63,3700.56 3168.5,3684C 3122.76,3641.44 3109.26,3590.27 3128,3530.5C 3141.91,3495.29 3167.91,3477.29 3206,3476.5C 3228.37,3476.63 3248.87,3482.79 3267.5,3495C 3289.59,3513.25 3298.76,3536.75 3295,3565.5C 3293.58,3580.7 3291.08,3595.7 3287.5,3610.5C 3275.83,3610.5 3264.17,3610.5 3252.5,3610.5C 3239.93,3647.04 3248.59,3677.54 3278.5,3702C 3305.29,3713.57 3331.96,3713.24 3358.5,3701C 3372.72,3693.78 3383.22,3682.94 3390,3668.5C 3397.64,3650.96 3401.97,3632.62 3403,3613.5C 3407.17,3552.57 3408.5,3491.57 3407,3430.5C 3405.76,3405.14 3402.09,3380.14 3396,3355.5C 3387.39,3330.55 3370.22,3315.05 3344.5,3309C 3317.32,3304.25 3290.65,3306.25 3264.5,3315C 3241.43,3323.54 3219.43,3334.2 3198.5,3347C 3190.92,3349.08 3184.09,3347.58 3178,3342.5C 3175.24,3232.84 3174.91,3123.18 3177,3013.5C 3182.49,3007.34 3189.32,3003.67 3197.5,3002.5C 3303.48,3017.2 3409.81,3028.53 3516.5,3036.5C 3533.37,3036.49 3545.2,3028.82 3552,3013.5C 3553.93,3008.54 3555.77,3003.54 3557.5,2998.5C 3559.76,2997.13 3562.1,2996.13 3564.5,2995.5 Z"/></g>
<g><path style="opacity:0.989" fill="#fefefe" d="M 686.5,3018.5 C 690.138,3018.74 692.971,3020.4 695,3023.5C 717.525,3063.35 745.025,3099.52 777.5,3132C 812.008,3157.22 844.175,3185.39 874,3216.5C 906.8,3260.43 931.466,3308.76 948,3361.5C 951.009,3381.89 954.342,3402.22 958,3422.5C 961.595,3455.41 956.929,3487.08 944,3517.5C 928.373,3542.07 905.873,3554.91 876.5,3556C 843.118,3558.57 812.118,3551.24 783.5,3534C 754.995,3517.17 730.495,3495.67 710,3469.5C 676.956,3421.74 653.956,3369.41 641,3312.5C 637.67,3270.46 641.67,3229.13 653,3188.5C 664.737,3159.95 674.071,3130.62 681,3100.5C 684.825,3073.3 686.658,3045.97 686.5,3018.5 Z"/></g>
<g><path style="opacity:0.989" fill="#fefefe" d="M 1156.5,3044.5 C 1205.37,3043.14 1252.7,3050.98 1298.5,3068C 1323.17,3080.66 1345,3097.16 1364,3117.5C 1370.8,3126.15 1372.46,3135.82 1369,3146.5C 1361.01,3189.35 1338.18,3221.51 1300.5,3243C 1264.87,3263.41 1226.87,3270.08 1186.5,3263C 1160.91,3253.02 1135.91,3241.69 1111.5,3229C 1102.12,3223.64 1093.46,3217.31 1085.5,3210C 1081.92,3209.06 1078.42,3207.9 1075,3206.5C 1072.82,3207.52 1070.66,3207.69 1068.5,3207C 1071.83,3211.67 1075.83,3215.67 1080.5,3219C 1110.68,3239.68 1142.85,3256.84 1177,3270.5C 1177.5,3273.11 1176.34,3274.45 1173.5,3274.5C 1163.84,3275.43 1154.18,3276.26 1144.5,3277C 1140.91,3278.53 1137.24,3279.86 1133.5,3281C 1209.83,3276.12 1278.5,3296.45 1339.5,3342C 1360.45,3359.69 1375.61,3381.52 1385,3407.5C 1400.03,3457.57 1388.19,3500.07 1349.5,3535C 1298.5,3578.51 1239.5,3596.51 1172.5,3589C 1134.98,3582.57 1102.31,3566.57 1074.5,3541C 1041.47,3509.45 1015.97,3472.61 998,3430.5C 983.333,3390.5 968.667,3350.5 954,3310.5C 947.054,3293.94 939.054,3277.94 930,3262.5C 928.675,3257.6 928.175,3252.6 928.5,3247.5C 933.936,3247.72 937.936,3250.22 940.5,3255C 969.771,3266.15 999.771,3274.82 1030.5,3281C 1035.89,3281.69 1041.22,3281.36 1046.5,3280C 999.356,3274.18 957.023,3256.85 919.5,3228C 895.469,3203.64 871.802,3178.97 848.5,3154C 849.098,3151.95 850.431,3150.79 852.5,3150.5C 882.362,3153.75 910.695,3148.58 937.5,3135C 951.841,3124.48 961.341,3110.65 966,3093.5C 968.844,3091.13 971.677,3091.29 974.5,3094C 976.667,3096.17 978.833,3098.33 981,3100.5C 995.567,3121.07 1010.9,3141.07 1027,3160.5C 1029.13,3155.41 1028.79,3150.41 1026,3145.5C 1013.67,3127.83 1001.33,3110.17 989,3092.5C 983.196,3081.89 978.696,3070.89 975.5,3059.5C 1035.78,3058.78 1096.11,3053.78 1156.5,3044.5 Z"/></g>
<g><path style="opacity:1" fill="#6044b2" d="M 1176.5,3072.5 C 1192.28,3071.85 1207.94,3072.68 1223.5,3075C 1233.05,3082.28 1243.38,3088.28 1254.5,3093C 1266.47,3102.79 1273.31,3115.29 1275,3130.5C 1275.67,3141.17 1275.67,3151.83 1275,3162.5C 1257.4,3196.4 1229.4,3213.4 1191,3213.5C 1153.24,3215.92 1121.58,3203.25 1096,3175.5C 1080.79,3157.93 1069.29,3138.09 1061.5,3116C 1063.33,3110.02 1066.66,3105.02 1071.5,3101C 1075.5,3098.33 1079.5,3095.67 1083.5,3093C 1099.1,3088.47 1114.44,3083.13 1129.5,3077C 1145.19,3074.26 1160.86,3072.76 1176.5,3072.5 Z"/></g>
<g><path style="opacity:1" fill="#fefdfe" d="M 1137.5,3103.5 C 1153.58,3102.94 1169.58,3103.78 1185.5,3106C 1214.62,3117.1 1220.78,3135.94 1204,3162.5C 1198.83,3167.67 1193.67,3172.83 1188.5,3178C 1151.68,3188.67 1126.85,3175.84 1114,3139.5C 1109.74,3127.46 1112.58,3117.63 1122.5,3110C 1127.37,3107.23 1132.37,3105.06 1137.5,3103.5 Z"/></g>
<g><path style="opacity:0.983" fill="#fefffe" d="M 1383.5,3148.5 C 1389.42,3147.88 1394.25,3149.88 1398,3154.5C 1406.02,3168.2 1412.68,3182.54 1418,3197.5C 1423.98,3218.75 1429.65,3240.08 1435,3261.5C 1436.98,3290.5 1436.98,3319.5 1435,3348.5C 1432.56,3363.99 1428.39,3378.99 1422.5,3393.5C 1419.38,3396.2 1416.54,3395.87 1414,3392.5C 1393.17,3354 1364.34,3322.84 1327.5,3299C 1313.15,3290.49 1298.49,3282.49 1283.5,3275C 1277.83,3271.33 1277.17,3267 1281.5,3262C 1304.99,3252.8 1326.16,3239.97 1345,3223.5C 1362.57,3201.03 1375.4,3176.03 1383.5,3148.5 Z"/></g>
<g><path style="opacity:1" fill="#5f43b2" d="M 727.5,3171.5 C 738.382,3170.86 749.048,3172.03 759.5,3175C 810.724,3196.23 850.89,3230.39 880,3277.5C 892.736,3313.27 896.403,3349.93 891,3387.5C 878.505,3428.31 850.838,3448.98 808,3449.5C 773.519,3449.09 745.186,3435.76 723,3409.5C 693.501,3373.22 680.501,3331.55 684,3284.5C 686.829,3254.52 695.829,3226.52 711,3200.5C 716.756,3190.93 722.256,3181.26 727.5,3171.5 Z"/></g>
<g><path style="opacity:1" fill="#fefefe" d="M 748.5,3234.5 C 785.419,3231.21 812.586,3245.87 830,3278.5C 837.516,3302.38 835.516,3325.38 824,3347.5C 798.177,3376.11 773.177,3375.44 749,3345.5C 739.787,3329.74 732.787,3313.08 728,3295.5C 722.22,3270.58 729.053,3250.25 748.5,3234.5 Z"/></g>
<g><path style="opacity:1" fill="#5f43b2" d="M 1125.5,3323.5 C 1161.56,3320.5 1196.56,3325 1230.5,3337C 1256.91,3348.74 1277.75,3366.91 1293,3391.5C 1295.97,3396.08 1297.97,3401.08 1299,3406.5C 1299.9,3424.53 1299.57,3442.53 1298,3460.5C 1283.97,3495.53 1259.14,3519.36 1223.5,3532C 1165.53,3542.68 1116.7,3526.18 1077,3482.5C 1056.61,3458.39 1041.94,3431.06 1033,3400.5C 1030.14,3385.56 1029.81,3370.56 1032,3355.5C 1034.17,3353.33 1036.33,3351.17 1038.5,3349C 1066.22,3335.66 1095.22,3327.16 1125.5,3323.5 Z"/></g>
<g><path style="opacity:1" fill="#fefefe" d="M 1125.5,3353.5 C 1160.39,3349.89 1190.89,3359.56 1217,3382.5C 1219.67,3386.5 1222.33,3390.5 1225,3394.5C 1226.3,3409.85 1224.63,3424.85 1220,3439.5C 1212.54,3449.3 1204.04,3458.13 1194.5,3466C 1160.88,3477.88 1132.38,3470.38 1109,3443.5C 1099.64,3432.45 1092.31,3420.12 1087,3406.5C 1082.86,3392.94 1085.69,3381.11 1095.5,3371C 1104.78,3363.86 1114.78,3358.03 1125.5,3353.5 Z"/></g>
<g><path style="opacity:0.982" fill="#fefffe" d="M 965.5,3415.5 C 970.067,3415.52 973.901,3417.19 977,3420.5C 999.433,3478.58 1032.27,3529.75 1075.5,3574C 1108.45,3599.47 1145.45,3616.3 1186.5,3624.5C 1187.38,3628.49 1186.05,3631.32 1182.5,3633C 1167.6,3636.81 1152.6,3640.14 1137.5,3643C 1071,3648.55 1005.67,3642.22 941.5,3624C 914.76,3615.48 889.426,3603.98 865.5,3589.5C 862.717,3586.66 863.05,3584.16 866.5,3582C 890.289,3580.72 912.955,3575.05 934.5,3565C 949.277,3554.61 957.777,3540.45 960,3522.5C 962.571,3512.65 964.238,3502.65 965,3492.5C 965.5,3466.84 965.667,3441.17 965.5,3415.5 Z"/></g>
</svg>
